<?xml version="1.0" encoding="utf-8"?>
<!-- Generator: Adobe Illustrator 24.1.3, SVG Export Plug-In . SVG Version: 6.00 Build 0)  -->
<svg version="1.1" id="레이어_1" xmlns="http://www.w3.org/2000/svg" xmlns:xlink="http://www.w3.org/1999/xlink" x="0px"
	 y="0px" viewBox="0 0 300 266" style="enable-background:new 0 0 300 266;" xml:space="preserve">
<style type="text/css">
	.st0{fill:#62D7DD;}
</style>
<g>
	<path class="st0" d="M300,206V56c0,0-27.83,0-60,0c-34.9,0-48,0-90,0s-55.1,0-90,0c-32.17,0-60,0-60,0v150v4c0,0,27.83,0,60,0
		c34.9,0,48,0,90,0s55.1,0,90,0c32.17,0,60,0,60,0V206z"/>
</g>
<g>
	<path class="st0" d="M300,206V56c0,0-27.83,0-60,0c-34.9,0-48-56-90-56S94.9,56,60,56c-32.17,0-60,0-60,0v150v4c0,0,27.83,0,60,0
		c34.9,0,48,56,90,56s55.1-56,90-56c32.17,0,60,0,60,0V206z"/>
</g>
<g>
	<path class="st0" d="M300,206V56c0,0-27.83,0-60,0c-34.9,0-48,13-90,13S94.9,56,60,56c-32.17,0-60,0-60,0v150v4c0,0,27.83,0,60,0
		c34.9,0,48-13,90-13s55.1,13,90,13c32.17,0,60,0,60,0V206z"/>
</g>
<g>
	<path class="st0" d="M300,206V56c0,0-27.83,0-60,0c-34.9,0-48-37-90-37S94.9,56,60,56c-32.17,0-60,0-60,0v150v4c0,0,27.83,0,60,0
		c34.9,0,48,37,90,37s55.1-37,90-37c32.17,0,60,0,60,0V206z"/>
</g>
<g>
	<path class="st0" d="M300,206V56c0,0-27.83,0-60,0c-34.9,0-48,8-90,8s-55.1-8-90-8c-32.17,0-60,0-60,0v150v4c0,0,27.83,0,60,0
		c34.9,0,48-8,90-8s55.1,8,90,8c32.17,0,60,0,60,0V206z"/>
</g>
<g>
	<path class="st0" d="M300,206V56c0,0-27.83,0-60,0c-34.9,0-48-27-90-27S94.9,56,60,56c-32.17,0-60,0-60,0v150v4c0,0,27.83,0,60,0
		c34.9,0,48,27,90,27s55.1-27,90-27c32.17,0,60,0,60,0V206z"/>
</g>
<g>
	<path class="st0" d="M300,206V56c0,0-27.83,0-60,0c-34.9,0-48,4-90,4s-55.1-4-90-4c-32.17,0-60,0-60,0v150v4c0,0,27.83,0,60,0
		c34.9,0,48-4,90-4s55.1,4,90,4c32.17,0,60,0,60,0V206z"/>
</g>
<g>
	<path class="st0" d="M300,206V56c0,0-27.83,0-60,0c-34.9,0-48-17-90-17S94.9,56,60,56c-32.17,0-60,0-60,0v150v4c0,0,27.83,0,60,0
		c34.9,0,48,17,90,17s55.1-17,90-17c32.17,0,60,0,60,0V206z"/>
</g>
<g>
	<path class="st0" d="M300,206V56c0,0-27.83,0-60,0c-34.9,0-48,1-90,1s-55.1-1-90-1c-32.17,0-60,0-60,0v150v4c0,0,27.83,0,60,0
		c34.9,0,48-1,90-1s55.1,1,90,1c32.17,0,60,0,60,0V206z"/>
</g>
<g>
	<path class="st0" d="M300,206V56c0,0-27.83,0-60,0c-34.9,0-48-7-90-7s-55.1,7-90,7c-32.17,0-60,0-60,0v150v4c0,0,27.83,0,60,0
		c34.9,0,48,7,90,7s55.1-7,90-7c32.17,0,60,0,60,0V206z"/>
</g>
<g>
	<path class="st0" d="M300,206V56c0,0-27.83,0-60,0c-34.9,0-48,0-90,0s-55.1,0-90,0c-32.17,0-60,0-60,0v150v4c0,0,27.83,0,60,0
		c34.9,0,48,0,90,0s55.1,0,90,0c32.17,0,60,0,60,0V206z"/>
</g>
</svg>
