<?xml version="1.0" encoding="utf-8"?>
<?xml-stylesheet type="text/css" href="../../css/main.css"?>
<!-- Generator: Adobe Illustrator 24.1.3, SVG Export Plug-In . SVG Version: 6.00 Build 0)  -->
<svg version="1.1" id="레이어_1" xmlns="http://www.w3.org/2000/svg" xmlns:xlink="http://www.w3.org/1999/xlink" x="0px"
	 y="0px" viewBox="0 0 500 400" style="enable-background:new 0 0 500 400;" xml:space="preserve">
<style type="text/css">
	.st0{fill:#B9D6FF;}
</style>
<g>
	<polygon class="st0 st01" points="219.5,172.6 187.1,174.7 169,147.6 183.5,118.4 215.9,116.3 234,143.4 	"/>
</g>
<g>
	<polygon class="st0 st02" points="273.5,199.6 241.1,201.7 223,174.6 237.5,145.4 269.9,143.3 288,170.4 	"/>
</g>
<g>
	<polygon class="st0 st03" points="167.5,204.6 135.1,206.7 117,179.6 131.5,150.4 163.9,148.3 182,175.4 	"/>
</g>
<g>
	<polygon class="st0 st04" points="221.5,233.6 189.1,235.7 171,208.6 185.5,179.4 217.9,177.3 236,204.4 	"/>
</g>
<g>
	<polygon class="st0 st05" points="277.5,261.6 245.1,263.7 227,236.6 241.5,207.4 273.9,205.3 292,232.4 	"/>
</g>
<g>
	<polygon class="st0 st06" points="324.5,167.6 292.1,169.7 274,142.6 288.5,113.4 320.9,111.3 339,138.4 	"/>
</g>
</svg>
