<svg width="500" height="1500" data-name="line" xmlns="http://www.w3.org/2000/svg" fill="none" stroke="#FFD900" stroke-width="3" style="margin:0 auto" stroke-dasharray="1009.23" stroke-dashoffset="1009.23"><path id="line-scroll" d="M437.5-5.5v133.79h-43.66l-36.76-20.42-5.24-54.64-40.18 37.39-53.58-11.91 23.14 49.77-27.88 47.29 54.49-6.63 36.35 41.12 10.53-53.87 39.84-17.29-.05 158.38H165.07l-13.5-18.94 9.96-27.38-27.8 8.75-22.96-17.93-.27 29.13-24.15 16.3 27.63 9.26 8.04 28.01 17.34-23.42 24.2.84v151.4l.45 6.33 51.15-28.66 6.24-67.55 49.83 46.04 66.17-14.94-28.39 61.61 34.66 58.32-67.37-7.96-44.75 50.99-13.25-66.54-54.14-23.29-.66 183.35h177.73l26.51 7.6 29.01-23.9 1.32 37.56 31.68 20.2-35.31 12.87-9.42 36.38-23.14-29.61-37.51 2.28 21-31.16-9.4-23.89H270.5v89.97l.26 4.78-81.92 3.76-60.21-79.43-26.42 96.11-94.16 32.72 83.24 54.83 2.03 99.65 77.87-62.22 95.4 28.87-35.12-93.29 46.56-66.89h46.47l.76 312.73-47.15-13.62-19.45-58.4-34.52 50.95-61.55.45 37.79 48.58-18.59 58.68 57.88-20.93 50.06 35.81-2.02-61.52 38.6-28.47h50.19l.31 201.35-25.49 4.15-25.54-26.66-5.62 36.48-33.24 16.05 32.96 16.62 4.99 36.57 25.99-26.21 36.32 6.56-16.89-32.82 12.29-22.9h67.92v202.66"/></svg>