<svg width="1500px" height="2310px" id="line" data-name="line" xmlns="http://www.w3.org/2000/svg" viewBox="0 0 1500 2310" fill="none" stroke="#9acd32" stroke-width="5" style="stroke-dasharray: 1009.23px; stroke-dashoffset: 1009.23px;"><path id="step-line" d="M1490 0 V40 C1490 65 1465 90 1440 90 H400 C375 90 350 115 350 140 V550 Q350 600 400 600 H800 C810 600 810 560 820 560 C830 560 830 600 840 600 C855 600 855 530 870 530 C885 530 885 600 900 600 C905 600 905 580 910 580 C915 580 915 600 920 600 H1100 Q1150 600 1150 650 V1115 Q1150 1165 1100 1165 H950 L940 1135 L970 1113 L933 1113 L923 1087 L914 1113 L877 1113 L907 1135 L897 1165 H400 Q350 1165 350 1215 V1660 Q350 1710 400 1710 H950 C960 1710 1055 1665 1000 1640 C995 1638 980 1640 980 1655 Q980 1625 955 1625 C925 1625 950 1710 980 1710 H1100 Q1150 1710 1150 1760 V2195 Q1150 2245 1100 2245 H400 Q350 2245 350 2295 V2405" /></svg>