<svg width="1500" height="2310" data-name="line" xmlns="http://www.w3.org/2000/svg" fill="none" stroke="#9acd32" stroke-width="5" style="stroke-dasharray: 1009.23px; stroke-dashoffset: 1009.23px;"><path id="step-line" d="M1490 0v40c0 25-25 50-50 50H400c-25 0-50 25-50 50v410q0 50 50 50h400c10 0 10-40 20-40s10 40 20 40c15 0 15-70 30-70s15 70 30 70c5 0 5-20 10-20s5 20 10 20h180q50 0 50 50v465q0 50-50 50H950l-10-30 30-22h-37l-10-26-9 26h-37l30 22-10 30H400q-50 0-50 50v445q0 50 50 50h550c10 0 105-45 50-70-5-2-20 0-20 15q0-30-25-30c-30 0-5 85 25 85h120q50 0 50 50v435q0 50-50 50H400q-50 0-50 50v110"/></svg>