<?xml version="1.0" encoding="utf-8"?>
<!-- Generator: Adobe Illustrator 24.1.3, SVG Export Plug-In . SVG Version: 6.00 Build 0)  -->
<svg version="1.1" xmlns="http://www.w3.org/2000/svg" xmlns:xlink="http://www.w3.org/1999/xlink" x="0px" y="0px" rx="2px" ry="2px" stroke="#FFD900" stroke-width="5"
	 viewBox="0 0 300 266" style="enable-background:new 0 0 300 266;" xml:space="preserve">
<style type="text/css">
	.st0{fill:none;}
</style>
<g id="레이어_1">
	<path class="st0" d="M98.1,224.1c0,0,3.8-78.9,65-94"/>
</g>
<g id="레이어_1_사본_2">
	<path class="st0" d="M49.8,161.9c0,0,31.3-51.7,107.1-54.2"/>
</g>
<g id="레이어_1_사본_4">
	<polygon class="st0" points="242.1,164.7 206.1,140.5 165.7,156.4 177.6,114.7 150,81.2 193.4,79.6 216.7,43 231.6,83.8 
		273.6,94.6 239.4,121.4 	"/>
	<polygon class="st0" points="180.8,54.3 174.9,52.1 169.8,55.7 170.1,49.5 165.1,45.7 171.1,44 173.1,38.1 176.6,43.3 182.8,43.4 
		178.9,48.3 	"/>
	<polygon class="st0" points="251.3,62.6 252.8,56.7 248.9,52 255,51.7 258.2,46.5 260.4,52.2 266.3,53.6 261.6,57.5 262,63.6 
		256.9,60.3 	"/>
	<polygon class="st0" points="273.6,138.4 267.7,137.3 263.4,141.6 262.6,135.6 257.2,132.9 262.7,130.3 263.6,124.4 267.7,128.7 
		273.7,127.7 270.8,133 	"/>
	<polygon class="st0" points="206.9,171.4 202.6,169 198.2,171.2 199.2,166.4 195.8,162.9 200.6,162.3 202.9,158 204.9,162.4 
		209.8,163.3 206.2,166.6 	"/>
</g>
<g id="레이어_1_사본">
	<path class="st0" d="M49.8,230.9c0,0,10.6-89.4,115.2-114.2"/>
</g>
</svg>
