<?xml version="1.0" encoding="utf-8"?>
<!-- Generator: Adobe Illustrator 24.1.3, SVG Export Plug-In . SVG Version: 6.00 Build 0)  -->
<svg version="1.1" id="레이어_1" xmlns="http://www.w3.org/2000/svg" xmlns:xlink="http://www.w3.org/1999/xlink" x="0px" y="0px" rx="5px" ry="5px" stroke="#FFD900" stroke-width="5" stroke-linejoin="round" stroke-linecap="round"
	 viewBox="0 0 560 470" fill="none" style="enable-background:new 0 0 560 470;" xml:space="preserve" stroke-dasharray="1009.23" stroke-dashoffset="1009.23">
<path class="st0" d="M149.9,419c0,0,7.8-162,133.3-192.9"/>
<path class="st0" d="M50.7,291.4c0,0,64.3-106.1,219.8-111.2"/>
<path class="st0" d="M50.7,432.9c0,0,21.8-183.5,236.4-234.3"/>
<polygon class="st0" points="445.3,297.2 371.4,247.4 288.5,280.1 313,194.5 256.4,125.8 345.4,122.6 393.2,47.5 423.7,131.1 
	509.9,153.4 439.8,208.3 "/>
<polygon class="st0" points="319.5,70.6 307.5,66.1 297.1,73.5 297.6,60.7 287.4,53 299.7,49.6 303.8,37.5 310.9,48.1 323.7,48.3 
	315.8,58.3 "/>
<polygon class="st0" points="464.1,87.7 467.4,75.6 459.2,66 471.8,65.4 478.3,54.7 482.8,66.4 495,69.3 485.3,77.2 486.3,89.7 
	475.7,82.9 "/>
<polygon class="st0" points="509.9,243.2 497.8,241 489.1,249.7 487.4,237.5 476.4,232 487.5,226.6 489.4,214.4 498,223.3 
	510.1,221.4 504.3,232.2 "/>
<polygon class="st0" points="373.1,310.9 364.3,306 355.3,310.5 357.3,300.6 350.3,293.5 360.2,292.3 364.9,283.4 369.1,292.5 
	379,294.2 371.6,301 "/>
</svg>
